<svg width="24" height="24" viewBox="0 0 24 24" fill="none" xmlns="http://www.w3.org/2000/svg">
<g clip-path="url(#clip0_1_182)">
<path d="M8.732 13.768C8.26 13.295 8 12.667 8 12C8 11.333 8.26 10.705 8.734 10.23L18.026 0.851991C18.22 0.655991 18.219 0.338991 18.023 0.144991C17.826 -0.0490089 17.51 -0.0470089 17.316 0.148991L8.025 9.52599C7.364 10.187 7 11.066 7 12.001C7 12.936 7.364 13.814 8.024 14.474L17.316 23.853C17.414 23.952 17.542 24.001 17.671 24.001C17.798 24.001 17.925 23.953 18.023 23.856C18.219 23.662 18.22 23.345 18.026 23.149L8.732 13.768Z" fill="black"/>
</g>
<defs>
<clipPath id="clip0_1_182">
<rect width="24" height="24" fill="white"/>
</clipPath>
</defs>
</svg>
