<svg width="26" height="22" viewBox="0 0 26 22" fill="none" xmlns="http://www.w3.org/2000/svg">
<path d="M18.2342 0C17.0612 0.0182447 15.9139 0.34568 14.9079 0.949241C13.902 1.5528 13.0731 2.41111 12.505 3.4375C11.937 2.41111 11.1081 1.5528 10.1022 0.949241C9.09623 0.34568 7.94885 0.0182447 6.77588 0C4.90602 0.0812403 3.14432 0.899223 1.87565 2.27524C0.60698 3.65126 -0.0655307 5.47346 0.00504282 7.34375C0.00504282 12.0802 4.99046 17.2531 9.17171 20.7604C10.1053 21.5449 11.2856 21.975 12.505 21.975C13.7245 21.975 14.9048 21.5449 15.8384 20.7604C20.0196 17.2531 25.005 12.0802 25.005 7.34375C25.0756 5.47346 24.4031 3.65126 23.1344 2.27524C21.8658 0.899223 20.1041 0.0812403 18.2342 0ZM14.4998 19.1667C13.9415 19.6369 13.235 19.8947 12.505 19.8947C11.7751 19.8947 11.0686 19.6369 10.5103 19.1667C5.15817 14.676 2.08838 10.3677 2.08838 7.34375C2.01717 6.02575 2.47001 4.73305 3.34813 3.7476C4.22625 2.76216 5.45841 2.16391 6.77588 2.08333C8.09334 2.16391 9.3255 2.76216 10.2036 3.7476C11.0817 4.73305 11.5346 6.02575 11.4634 7.34375C11.4634 7.62002 11.5731 7.88497 11.7685 8.08032C11.9638 8.27567 12.2288 8.38542 12.505 8.38542C12.7813 8.38542 13.0463 8.27567 13.2416 8.08032C13.437 7.88497 13.5467 7.62002 13.5467 7.34375C13.4755 6.02575 13.9283 4.73305 14.8065 3.7476C15.6846 2.76216 16.9167 2.16391 18.2342 2.08333C19.5517 2.16391 20.7838 2.76216 21.662 3.7476C22.5401 4.73305 22.9929 6.02575 22.9217 7.34375C22.9217 10.3677 19.8519 14.676 14.4998 19.1625V19.1667Z" fill="#2C6A3E"/>
</svg>
