<svg width="25" height="25" viewBox="0 0 25 25" fill="none" xmlns="http://www.w3.org/2000/svg">
<path d="M12.5 15.6191C10.7741 15.6191 9.375 17.0191 9.375 18.7461V25H15.625V18.7461C15.625 17.0191 14.2259 15.6191 12.5 15.6191Z" fill="#2C6A3E"/>
<path d="M17.7083 18.7461V25H21.875C23.6009 25 25 23.6 25 21.8731V12.3661C25.0002 11.8246 24.7899 11.3043 24.4135 10.9152L15.5615 1.33942C13.9996 -0.351576 11.3634 -0.455401 9.67349 1.10749C9.59321 1.18175 9.51587 1.25909 9.4417 1.33942L0.605225 10.9121C0.217432 11.3027 -0.00014641 11.8311 7.39174e-08 12.3817V21.8731C7.39174e-08 23.6 1.39912 25 3.125 25H7.29165V18.7461C7.31113 15.9039 9.60444 13.5829 12.3733 13.5161C15.2349 13.447 17.6865 15.8075 17.7083 18.7461Z" fill="#2C6A3E"/>
<path d="M12.5 15.6191C10.7741 15.6191 9.375 17.0191 9.375 18.7461V25H15.625V18.7461C15.625 17.0191 14.2259 15.6191 12.5 15.6191Z" fill="#2C6A3E"/>
</svg>
