<svg width="97" height="97" viewBox="0 0 97 97" fill="none" xmlns="http://www.w3.org/2000/svg">
<circle cx="48.0276" cy="48.0276" r="48.0276" fill="#2C6A3E"/>
<g clip-path="url(#clip0_1_1303)">
<path d="M48.0138 48.9879C50.3885 48.9879 52.7099 48.2837 54.6845 46.9644C56.659 45.6451 58.198 43.7698 59.1067 41.5759C60.0155 39.3819 60.2533 36.9677 59.79 34.6386C59.3267 32.3095 58.1831 30.1701 56.504 28.4909C54.8248 26.8117 52.6853 25.6681 50.3562 25.2048C48.0271 24.7415 45.6129 24.9793 43.419 25.8881C41.225 26.7969 39.3498 28.3358 38.0304 30.3103C36.7111 32.2849 36.0069 34.6063 36.0069 36.981C36.0101 40.1645 37.2761 43.2166 39.5271 45.4677C41.7782 47.7187 44.8303 48.9847 48.0138 48.9879ZM48.0138 28.9764C49.597 28.9764 51.1446 29.4459 52.4609 30.3254C53.7773 31.205 54.8032 32.4551 55.4091 33.9178C56.0149 35.3804 56.1734 36.9899 55.8646 38.5426C55.5557 40.0954 54.7934 41.5217 53.6739 42.6411C52.5544 43.7606 51.1282 44.523 49.5754 44.8318C48.0227 45.1407 46.4132 44.9822 44.9506 44.3763C43.4879 43.7705 42.2378 42.7445 41.3582 41.4281C40.4787 40.1118 40.0092 38.5642 40.0092 36.981C40.0092 34.8581 40.8525 32.8221 42.3537 31.3209C43.8548 29.8198 45.8908 28.9764 48.0138 28.9764Z" fill="white"/>
<path d="M48.0138 52.9905C43.2388 52.9958 38.6609 54.895 35.2844 58.2714C31.908 61.6479 30.0087 66.2258 30.0034 71.0008C30.0034 71.5316 30.2143 72.0406 30.5896 72.4159C30.9649 72.7911 31.4739 73.002 32.0046 73.002C32.5353 73.002 33.0443 72.7911 33.4196 72.4159C33.7949 72.0406 34.0057 71.5316 34.0057 71.0008C34.0057 67.2857 35.4816 63.7227 38.1086 61.0956C40.7356 58.4686 44.2986 56.9928 48.0138 56.9928C51.729 56.9928 55.292 58.4686 57.919 61.0956C60.546 63.7227 62.0218 67.2857 62.0218 71.0008C62.0218 71.5316 62.2327 72.0406 62.608 72.4159C62.9832 72.7911 63.4923 73.002 64.023 73.002C64.5537 73.002 65.0627 72.7911 65.438 72.4159C65.8133 72.0406 66.0241 71.5316 66.0241 71.0008C66.0188 66.2258 64.1196 61.6479 60.7432 58.2714C57.3667 54.895 52.7888 52.9958 48.0138 52.9905Z" fill="white"/>
</g>
<defs>
<clipPath id="clip0_1_1303">
<rect width="48.0276" height="48.0276" fill="white" transform="translate(24 24.9744)"/>
</clipPath>
</defs>
</svg>
